<mxfile host="app.diagrams.net" modified="2023-11-28T13:29:29.582Z" agent="Mozilla/5.0 (X11; Linux x86_64; rv:109.0) Gecko/20100101 Firefox/115.0" version="22.1.4" etag="OsronxaUVFKoeqrtZvYh" type="github">
  <diagram name="Page-1" id="Fq0UiZnI2BeCTEHTAZXi">
    <mxGraphModel>
      <root>
        <mxCell id="0" />
        <mxCell id="1" parent="0" />
      </root>
    </mxGraphModel>
  </diagram>
</mxfile>
